<?xml version="1.0" encoding="UTF-8"?>
<svg version="1.1" viewBox="0 0 692.98469 836.98788" xmlns="http://www.w3.org/2000/svg" xmlns:xlink="http://www.w3.org/1999/xlink">
 <defs>
  <linearGradient id="n">
   <stop stop-color="#ffdde4" offset="0"/>
   <stop stop-color="#fff" offset="1"/>
  </linearGradient>
  <linearGradient id="j">
   <stop offset="0"/>
   <stop stop-opacity="0" offset="1"/>
  </linearGradient>
  <linearGradient id="h">
   <stop stop-color="#999499" offset="0"/>
   <stop stop-color="#4b4340" offset="1"/>
  </linearGradient>
  <linearGradient id="c">
   <stop stop-color="#767171" offset="0"/>
   <stop stop-color="#5c5250" offset="1"/>
  </linearGradient>
  <linearGradient id="i">
   <stop stop-color="#fff" offset="0"/>
   <stop stop-color="#d5d5d5" offset="1"/>
  </linearGradient>
  <linearGradient id="g">
   <stop stop-color="#fcf69d" offset="0"/>
   <stop stop-color="#ddd575" offset="1"/>
  </linearGradient>
  <linearGradient id="d">
   <stop stop-color="#743b03" offset="0"/>
   <stop stop-color="#743b03" offset="1"/>
  </linearGradient>
  <linearGradient id="e">
   <stop stop-color="#d40016" offset="0"/>
   <stop stop-color="#940010" offset="1"/>
  </linearGradient>
  <linearGradient id="f">
   <stop stop-color="#fffffe" offset="0"/>
   <stop stop-color="#fffffe" stop-opacity="0" offset="1"/>
  </linearGradient>
  <linearGradient id="o">
   <stop stop-opacity="0" offset="0"/>
   <stop offset="1"/>
  </linearGradient>
  <linearGradient id="l">
   <stop stop-color="#565177" offset="0"/>
   <stop stop-color="#565177" offset="1"/>
  </linearGradient>
  <linearGradient id="b">
   <stop stop-color="#bbb6d9" offset="0"/>
   <stop stop-color="#bbb6d9" stop-opacity="0" offset="1"/>
  </linearGradient>
  <linearGradient id="k">
   <stop stop-color="#bed9f1" offset="0"/>
   <stop stop-color="#bed9f1" offset="1"/>
  </linearGradient>
  <linearGradient id="r">
   <stop stop-color="#c0c0c0" offset="0"/>
   <stop stop-color="#fefefe" offset="1"/>
  </linearGradient>
  <linearGradient id="a">
   <stop stop-color="#fffae7" offset="0"/>
   <stop stop-color="#fcddbf" offset="1"/>
  </linearGradient>
  <linearGradient id="az" x1="298.4" x2="547.35" gradientUnits="userSpaceOnUse">
   <stop stop-color="#a8c5da" offset="0"/>
   <stop stop-color="#a8c5da" offset="1"/>
  </linearGradient>
  <linearGradient id="cx" x1="260.5" x2="309.75" y1="420.51" y2="432.01" gradientTransform="translate(.004511 -.0044658)" gradientUnits="userSpaceOnUse">
   <stop stop-color="#d40016" offset="0"/>
   <stop stop-color="#940010" offset=".5"/>
   <stop stop-color="#d40016" offset="1"/>
  </linearGradient>
  <linearGradient id="bk" x1="392.89" x2="441.38" y1="172.36" y2="228.36" gradientUnits="userSpaceOnUse" xlink:href="#a"/>
  <linearGradient id="bj" x1="454.34" x2="483.63" gradientUnits="userSpaceOnUse" xlink:href="#a"/>
  <linearGradient id="bb" x1="337.84" x2="321.58" gradientUnits="userSpaceOnUse" xlink:href="#a"/>
  <linearGradient id="q" x1="367.94" x2="368.17" y1="157.76" y2="175.82" gradientUnits="userSpaceOnUse" xlink:href="#r"/>
  <linearGradient id="cu" x1="721.12" x2="756.38" gradientUnits="userSpaceOnUse" xlink:href="#a"/>
  <linearGradient id="ct" x1="714.88" x2="748.63" gradientUnits="userSpaceOnUse" xlink:href="#a"/>
  <linearGradient id="cs" x1="720.5" x2="734.25" gradientUnits="userSpaceOnUse" xlink:href="#a"/>
  <linearGradient id="cr" x1="64.75" x2="87" gradientUnits="userSpaceOnUse" xlink:href="#a"/>
  <linearGradient id="cq" x1="65.75" x2="99.5" gradientUnits="userSpaceOnUse" xlink:href="#a"/>
  <linearGradient id="cp" x1="82.836" x2="96.586" gradientUnits="userSpaceOnUse" xlink:href="#a"/>
  <linearGradient id="co" x1="614.39" x2="743.77" y1="495.65" y2="539.65" gradientUnits="userSpaceOnUse" xlink:href="#a"/>
  <linearGradient id="cn" x1="337.21" x2="375.5" gradientUnits="userSpaceOnUse" xlink:href="#a"/>
  <linearGradient id="cl" x1="308.27" x2="401.52" y1="140.12" y2="67.198" gradientUnits="userSpaceOnUse" xlink:href="#b"/>
  <linearGradient id="cf" x1="332.56" x2="358.44" y1="132.36" y2="91.88" gradientUnits="userSpaceOnUse" xlink:href="#b"/>
  <linearGradient id="cc" x1="369.8" x2="377.73" y1="162.75" y2="75.243" gradientUnits="userSpaceOnUse" xlink:href="#b"/>
  <linearGradient id="cb" x1="384.9" x2="389.45" y1="122.36" y2="89.57" gradientUnits="userSpaceOnUse" xlink:href="#b"/>
  <linearGradient id="bz" x1="392.49" x2="421.34" y1="129.92" y2="104.29" gradientUnits="userSpaceOnUse" xlink:href="#b"/>
  <linearGradient id="by" x1="423.77" x2="430.24" y1="140.92" y2="139.86" gradientUnits="userSpaceOnUse" xlink:href="#b"/>
  <linearGradient id="bx" x1="444.54" x2="431.55" y1="134.18" y2="101.11" gradientUnits="userSpaceOnUse" xlink:href="#b"/>
  <linearGradient id="bw" x1="424.65" x2="461.11" gradientUnits="userSpaceOnUse" xlink:href="#b"/>
  <linearGradient id="bv" x1="443.08" x2="486.11" y1="165.12" y2="146.82" gradientUnits="userSpaceOnUse" xlink:href="#b"/>
  <linearGradient id="bt" x1="489.93" x2="488.94" y1="202.33" y2="159.29" gradientUnits="userSpaceOnUse" xlink:href="#b"/>
  <linearGradient id="br" x1="465.81" x2="419.67" y1="91.934" y2="69.926" gradientUnits="userSpaceOnUse" xlink:href="#b"/>
  <linearGradient id="bn" x1="437.19" x2="411.54" y1="58.435" y2="60.468" gradientUnits="userSpaceOnUse" xlink:href="#b"/>
  <linearGradient id="bl" x1="298.4" x2="547.35" gradientUnits="userSpaceOnUse" xlink:href="#k"/>
  <linearGradient id="cm" x1="322.6" x2="342.52" gradientUnits="userSpaceOnUse" xlink:href="#l"/>
  <linearGradient id="bu" x1="459.15" x2="481.26" gradientUnits="userSpaceOnUse" xlink:href="#l"/>
  <linearGradient id="bi" x1="443.9" x2="475.4" gradientUnits="userSpaceOnUse" xlink:href="#l"/>
  <linearGradient id="ba" x1="388.92" x2="394.45" gradientUnits="userSpaceOnUse" xlink:href="#b"/>
  <linearGradient id="au" x1="445.5" x2="455.57" gradientUnits="userSpaceOnUse" xlink:href="#k"/>
  <linearGradient id="ap" x1="338.25" x2="369.75" gradientUnits="userSpaceOnUse" xlink:href="#b"/>
  <linearGradient id="am" x1="297.5" x2="313.75" gradientUnits="userSpaceOnUse" xlink:href="#k"/>
  <linearGradient id="ad" x1="493.25" x2="510.89" gradientUnits="userSpaceOnUse" xlink:href="#b"/>
  <linearGradient id="ca" x1="301.75" x2="541" gradientUnits="userSpaceOnUse" xlink:href="#e"/>
  <linearGradient id="bc" x1="375.33" x2="402" y1="516.94" y2="509.94" gradientUnits="userSpaceOnUse" xlink:href="#e"/>
  <linearGradient id="av" x1="419.96" x2="473.91" y1="553.29" y2="523.64" gradientUnits="userSpaceOnUse" xlink:href="#e"/>
  <linearGradient id="aq" x1="335.5" x2="341.25" y1="403.35" y2="410.35" gradientUnits="userSpaceOnUse" xlink:href="#e"/>
  <linearGradient id="bh" x1="332.94" x2="473.33" gradientUnits="userSpaceOnUse" xlink:href="#d"/>
  <linearGradient id="ac" x1="321.58" x2="346.98" gradientUnits="userSpaceOnUse" xlink:href="#d"/>
  <linearGradient id="dj" x1="454.34" x2="483.63" gradientUnits="userSpaceOnUse" xlink:href="#d"/>
  <linearGradient id="db" x1="279.5" x2="505.25" y1="250.81" y2="382.81" gradientUnits="userSpaceOnUse" xlink:href="#g"/>
  <linearGradient id="ck" x1="343.98" x2="409.5" y1="251.61" y2="311.61" gradientUnits="userSpaceOnUse" xlink:href="#i"/>
  <linearGradient id="bs" x1="449.5" x2="473.5" y1="238.18" y2="310.52" gradientUnits="userSpaceOnUse" xlink:href="#i"/>
  <linearGradient id="bg" x1="397.5" x2="481" gradientUnits="userSpaceOnUse" xlink:href="#i"/>
  <linearGradient id="ay" x1="399.5" x2="526.5" gradientUnits="userSpaceOnUse" xlink:href="#i"/>
  <linearGradient id="at" x1="392.07" x2="455.22" y1="327.92" y2="339.16" gradientUnits="userSpaceOnUse" xlink:href="#e"/>
  <linearGradient id="cj" x1="368.5" x2="381.39" gradientUnits="userSpaceOnUse" xlink:href="#g"/>
  <linearGradient id="bq" x1="428.71" x2="442.44" gradientUnits="userSpaceOnUse" xlink:href="#r"/>
  <linearGradient id="bf" x1="449.22" x2="465.07" gradientUnits="userSpaceOnUse" xlink:href="#g"/>
  <linearGradient id="ci" x1="343.68" x2="331.25" y1="515.58" y2="502.14" gradientUnits="userSpaceOnUse" xlink:href="#e"/>
  <linearGradient id="bp" x1="330.84" x2="311.8" y1="551.11" y2="528.66" gradientUnits="userSpaceOnUse" xlink:href="#e"/>
  <linearGradient id="be" x1="422.41" x2="445.55" y1="779.86" y2="762.86" gradientUnits="userSpaceOnUse" xlink:href="#c"/>
  <linearGradient id="ax" x1="454.41" x2="468.91" y1="764.36" y2="781.86" gradientUnits="userSpaceOnUse" xlink:href="#c"/>
  <linearGradient id="as" x1="439.41" x2="449.91" y1="689.49" y2="730.99" gradientUnits="userSpaceOnUse" xlink:href="#c"/>
  <linearGradient id="ao" x1="443.28" x2="447.39" y1="660.96" y2="676.96" gradientUnits="userSpaceOnUse" xlink:href="#h"/>
  <linearGradient id="ak" x1="465.25" x2="477.5" y1="709.36" y2="712.11" gradientUnits="userSpaceOnUse" xlink:href="#c"/>
  <linearGradient id="aj" x1="455" x2="478.75" y1="721.36" y2="723.74" gradientUnits="userSpaceOnUse" xlink:href="#c"/>
  <linearGradient id="ai" x1="454.75" x2="479" y1="729.36" y2="729.74" gradientUnits="userSpaceOnUse" xlink:href="#c"/>
  <linearGradient id="ah" x1="451.25" x2="476.25" y1="739.86" y2="741.61" gradientUnits="userSpaceOnUse" xlink:href="#c"/>
  <linearGradient id="ag" x1="436" x2="475.5" gradientUnits="userSpaceOnUse" xlink:href="#j"/>
  <linearGradient id="af" x1="421" x2="475.5" gradientUnits="userSpaceOnUse" xlink:href="#j"/>
  <linearGradient id="ae" x1="421.75" x2="472.5" gradientUnits="userSpaceOnUse" xlink:href="#j"/>
  <linearGradient id="aa" x1="424.75" x2="465.5" gradientUnits="userSpaceOnUse" xlink:href="#c"/>
  <linearGradient id="dh" x1="420.25" x2="472" gradientUnits="userSpaceOnUse" xlink:href="#c"/>
  <linearGradient id="de" x1="357.95" x2="425.69" y1="75.417" y2="139.76" gradientUnits="userSpaceOnUse" xlink:href="#a"/>
  <linearGradient id="ch" x1="394.94" x2="416.94" y1="826.69" y2="848.27" gradientUnits="userSpaceOnUse" xlink:href="#h"/>
  <linearGradient id="bo" x1="381.44" x2="481" y1="839.2" y2="837.75" gradientUnits="userSpaceOnUse" xlink:href="#h"/>
  <linearGradient id="bd" x1="410.44" x2="425.94" y1="816.31" y2="825.61" gradientUnits="userSpaceOnUse" xlink:href="#h"/>
  <linearGradient id="aw" x1="402" x2="408" y1="878.89" y2="893.89" gradientUnits="userSpaceOnUse" xlink:href="#c"/>
  <linearGradient id="ar" x1="453.73" x2="370.73" gradientUnits="userSpaceOnUse" xlink:href="#n"/>
  <linearGradient id="an" x1="243.64" x2="270" gradientUnits="userSpaceOnUse" xlink:href="#g"/>
  <linearGradient id="al" x1="477.07" x2="448.32" y1="661.79" y2="659.04" gradientUnits="userSpaceOnUse" xlink:href="#n"/>
  <linearGradient id="ab" x1="73.393" x2="743.77" gradientUnits="userSpaceOnUse" xlink:href="#d"/>
  <linearGradient id="di" x1="716.97" x2="734.25" gradientUnits="userSpaceOnUse" xlink:href="#d"/>
  <linearGradient id="dg" x1="714.88" x2="748.67" gradientUnits="userSpaceOnUse" xlink:href="#d"/>
  <linearGradient id="dd" x1="721.12" x2="757.18" gradientUnits="userSpaceOnUse" xlink:href="#d"/>
  <linearGradient id="da" x1="82.836" x2="96.586" gradientUnits="userSpaceOnUse" xlink:href="#d"/>
  <linearGradient id="cz" x1="65.75" x2="99.5" gradientUnits="userSpaceOnUse" xlink:href="#d"/>
  <linearGradient id="cy" x1="64.208" x2="87" gradientUnits="userSpaceOnUse" xlink:href="#d"/>
  <linearGradient id="cg" x1="399" x2="427.3" y1="245.74" y2="261.49" gradientUnits="userSpaceOnUse" xlink:href="#a"/>
  <linearGradient id="df" x1="311.5" x2="350.5" y1="564.14" y2="557.14" gradientUnits="userSpaceOnUse" xlink:href="#a"/>
  <linearGradient id="dc" x1="397.5" x2="427.74" y1="508.51" y2="513.51" gradientUnits="userSpaceOnUse" xlink:href="#a"/>
  <linearGradient id="cw" x1="133.35" x2="131.4" y1="214.83" y2="229.12" gradientUnits="userSpaceOnUse" xlink:href="#a"/>
  <linearGradient id="cv" x1="394.96" x2="324.43" y1="355.49" y2="332.36" gradientUnits="userSpaceOnUse" xlink:href="#a"/>
  <linearGradient id="ce" x1="478.76" x2="476.75" y1="230.88" y2="262.63" gradientUnits="userSpaceOnUse" xlink:href="#a"/>
  <linearGradient id="cd" x1="280.22" x2="289.35" y1="338.67" y2="337.61" gradientTransform="translate(.004511 -.0044658)" gradientUnits="userSpaceOnUse" xlink:href="#g"/>
  <linearGradient id="bm" x1="313" x2="330.25" gradientTransform="translate(.004511 -.0044658)" gradientUnits="userSpaceOnUse" xlink:href="#g"/>
  <radialGradient id="z" cx="366.78" cy="192.49" r="13.509" gradientTransform="matrix(.55777 -.58801 .61042 .57902 45.159 299.7)" gradientUnits="userSpaceOnUse" xlink:href="#o"/>
  <radialGradient id="y" cx="366.78" cy="192.49" r="13.509" gradientTransform="matrix(-.55777 -.58801 -.61042 .57902 757.29 299.89)" gradientUnits="userSpaceOnUse" xlink:href="#o"/>
  <radialGradient id="x" cx="363.89" cy="175.2" r="3.0936" gradientTransform="matrix(3.5429 -6.1322e-5 6.1816e-5 3.5714 -982.33 -502.58)" gradientUnits="userSpaceOnUse" xlink:href="#f"/>
  <radialGradient id="w" cx="363.89" cy="175.2" r="3.0936" gradientTransform="matrix(3.6 -.00011228 .00011495 3.6857 -934.36 -523.47)" gradientUnits="userSpaceOnUse" xlink:href="#f"/>
  <radialGradient id="v" cx="363.89" cy="175.2" r="3.0936" gradientTransform="matrix(2.6428 5.5195e-6 -6.0854e-6 1.2343 -597 -78.03)" gradientUnits="userSpaceOnUse" xlink:href="#f"/>
  <radialGradient id="u" cx="363.89" cy="175.2" r="3.0936" gradientTransform="matrix(3.0428 5.5195e-6 -6.2774e-6 1.2343 -811.68 -78.737)" gradientUnits="userSpaceOnUse" xlink:href="#f"/>
  <radialGradient id="t" cx="363.89" cy="175.2" r="3.0936" gradientTransform="matrix(-2.3096 -2.1374 .45413 -.49067 1068.4 1000.1)" gradientUnits="userSpaceOnUse" xlink:href="#f"/>
  <radialGradient id="s" cx="363.89" cy="175.2" r="3.0936" gradientTransform="matrix(-2.881 -2.2517 .41173 -.52675 1353.8 1048.4)" gradientUnits="userSpaceOnUse" xlink:href="#f"/>
  <radialGradient id="m" cx="309.5" cy="296.86" r="13" gradientTransform="matrix(1 0 0 .61537 0 114.18)" gradientUnits="userSpaceOnUse">
   <stop stop-color="#ff8fff" stop-opacity=".28025" offset="0"/>
   <stop stop-color="#ffcbff" stop-opacity="0" offset="1"/>
  </radialGradient>
  <linearGradient id="p" x1="315.18" x2="317.78" y1="159.37" y2="194.14" gradientUnits="userSpaceOnUse">
   <stop stop-color="#463e5d" offset="0"/>
   <stop stop-color="#934c78" offset="1"/>
  </linearGradient>
 </defs>
 <g transform="translate(-65.203 -51.831)" fill-rule="evenodd" stroke="#000" stroke-width=".2">
  <path d="m342.42 89.46c-1.7571 8.1429-42.53 59.054-1.4142 150.26-19.241-59.733-0.33383-112.74 1.4142-150.26z" fill="url(#cm)"/>
  <path d="m444 254.36c35.665-18.615 34.417-123.42 27.25-147.25 0.41667 28.333 7.4344 89.985-27.25 147.25z" fill="url(#bi)"/>
  <path d="m471.25 102.36c-0.14002 53.491 6.7521 109.09-12 157 17.294-26.433 32.628-56.685 12-157z" fill="url(#bu)"/>
 </g>
 <g transform="translate(-65.203 -51.831)" fill-rule="evenodd" stroke="#000">
  <path d="m437.7 242.37c-3.867 4.7251-6.48 9.5468-8.4853 15.203l12.728 0.35355-4.2426-15.556z" fill="url(#bq)"/>
  <path d="m369 246.36c28.253-8.1478 55.626-6.1618 75.172 2.8284l-10.17 32.17-60-4-5-31z" fill="url(#cj)"/>
  <path d="m500.99 398.64c-5.2678 5.1278-4.8369 9.6365-17.678 13.081l-8.1317-7.4246c5.6568 6.2874-2.4749-3.1709 4.9497 4.9498-14.104 11.826-20.485 8.2069-30.406 11.667l6.0104-39.952 45.255 17.678z" fill="url(#bf)"/>
  <path d="m312.36 553.14c2.65-6.7519 2.4664-15.301 11.49-18.738 10.334-3.9359 16.19 1.1128 22.981 2.9593l1.4142-53.694-33.234 21.39c-3.7128 15.115-12.542 28.58-2.6516 48.083z" fill="url(#bp)"/>
  <path d="m244.5 235.36c-1.2212 22.128 0.35439 43.825 10 73 0 0 14.875-11.872 15-34.5 0.12502-22.628-25-38.5-25-38.5z" fill="url(#an)"/>
 </g>
 <g transform="translate(-64.203 -61.831)" fill-rule="evenodd">
  <path d="m721.62 306.99 31.25-19c1.2084 0.30592 2.6794 0.34921 3 1.5429 0.97031 1.75 1.3363 3.5-0.5 5.25l-25.75 17.207-8-5z" fill="url(#cu)" stroke="url(#dd)"/>
  <path d="m715.38 303.99 24.75-37.75c1.3229-2.2865 3.2357-2.5084 5.5-1.5 2.14 1.2387 2.7108 2.7912 2.5 4.5l-25.5 43.5-7.25-8.75z" fill="url(#ct)" stroke="url(#dg)"/>
  <path d="m725 260.2c0.19368-2.7162 1.4211-4.1403 3.5-4.5 4.3074 0.15396 3.9308 2.3154 5.25 3.75l-10.23 41.27-3.2448 4.7981-2.8106-1.2751 7.5355-44.043z" fill="url(#cs)" stroke="url(#di)"/>
  <path d="m85.25 242.36-17-14.25c-2.1969-0.0479-2.7846 0.97696-3 2.25-1.0036 1.75-0.48285 3.5 0.5 5.25l20.75 21-1.25-14.25z" fill="url(#cr)" stroke="url(#cy)"/>
  <path d="m99 244.11-24.75-37.75c-0.94221-1.6139-1.9489-3.1472-5.5-1.5-1.0349 1.0969-2.1115 2.1104-2.5 4.5l25.5 43.5 7.25-8.75z" fill="url(#cq)" stroke="url(#cz)"/>
  <path d="m92.086 193.83-3.5-4.5c-1.5566-0.36311-4.6275 0.24501-5.25 3.75l4.75 46.75 6.25 2.5 1.75-3.75-4-44.75z" fill="url(#cp)" stroke="url(#da)"/>
  <path d="m422.68 224.35c-12.183-1.7384-24.365-2.5073-36.548 1.3536l-1.3536 37.567c-6.1283-0.11208-16.257 0.219-22.385-2.8284-19.798-9.3646-32.195-7.3246-45.962-1.7678-27.459 3.6871-70.121 0.20148-82.378-5.6568-22.667-11.308-44.438-9.8125-68.236-9.1924-13.271 0.34579-44.194 0-44.194 0-13.069-8.4506-14.911-15.557-18.385-22.274l-4.2426-29.698c-0.76379-1.6216-2.206-3.6994-4.9498-3.5355-1.7236 0.13997-3.2454 1.845-2.8284 3.8891 1.1343 19.563 4.1067 44.783 2.8284 49.144-6.1878-5.6569-8.0565-15.733-12.198-24.926-1.7088-2.9751-3.4177-3.0125-5.1265-2.6516-3.5357 1.9642-1.7999 4.689-2.8284 7.0711 1.2199 6.8354 4.5912 13.671 7.0711 20.506-0.0036 4.9498 0.63194 9.8995 1.0607 14.849 7.3241 18.786 15.211 14.249 22.981 16.087 5.721-0.55944 20.575 3.3322 29.698 4.773 13.994 2.21 43.285 8.4986 56.215 9.5459 10.791 0.87411 25.417 4.6371 37.123 4.9498 17.64 5.5557 57.034 4.5014 68.943 5.3033 16.763 1.1288 31.601 7.2727 44.548 16.617 0.54947 29.404 1.3179 57.747 12.728 86.621 0.58801 12.314-0.75303 25.592-4.5962 35.355-6.698 14.509-11.667 30.17-12.728 48.437-13.584 59.392 16.362 116.35 28.991 184.91 2.147 8.1317 1.3417 16.971 7.0711 26.516-8.8951 41.955 12.529 83.91 22.274 125.87 0.32866 8.0388 2.0788 14.656 0 25.102-5.0294 9.1542-8.4722 16.722-16.971 29.345 2.0772 6.9605 5.82 11.422 11.667 12.728 13.261 2.4633 26.61 4.5774 41.719-0.35355 4.4718-2.7728 8.7711-5.6318 9.5459-10.253l-7.4246-37.123c-4.7948-16.028-5.8978-32.056-5.3033-48.083-0.1342-12.525-11.823-65.13-13.789-98.288-1.0607-8.2496-0.70711-17.206-1.0607-24.749-1.6499-41.248-7.9994-122.9-4.9498-123.74 3.0496-0.84691 3.144 31.466 7.0711 51.972-1.186 8.7285 0.15927 14.926 0.7071 21.92-3.0933 28.402-0.2516 56.804 0 85.206 9.7168-18.444 20.941-21.81 32.527-21.567 6.5042 1.5605 13.331 1.8314 18.031 10.607 7.439-20.735 8.1128-44.852 8.1317-69.296 1.5298-6.722 5.372-8.8192 3.5355-22.274 6.483-20.742 14.489-41.102 13.789-63.64 1.0509-19.91-1.6401-37.013-8.1317-51.265-4.4631-17.678-7.7528-35.355-19.445-53.033-1.6382-10.595-2.1186-29.032-1.8713-37.741 5.3505-32.173 6.1278-55.597 7.8817-87.77 14.294-4.4952 20.155-4.7744 27.224-5.6569 33.364 3.182 53.396 6.364 79.903 9.5459 35.297 6.3998 91.77 0.64073 125.49 8.4246 4.4872 0.67319 14.711-1.2292 16.706-2.1792 4.1331-1.0473 10.542-3.3728 14.124-8.0524 3.0637-4.0023 6.4551-12.081 8.2968-14.093 1.3516-2.0076 0.10887-2.7179-0.8033-3.5936-1.2374-0.93674-2.9168-0.84466-4.2426 0.7071l-11.132 12.533c-1.3186-8.4706 2.4445-14.676 4.3739-21.847l5.331-16.087c-0.38919-1.7075-0.0202-4.5957-2.682-4.7123-4.1926-1.2969-5.4312 3.0757-6.4926 4.8159 0 0-6.2971 20.525-7.2478 22.981-0.85614 2.2114-3.4185 5.6104-5.1213 8.364-4.6266-2.4773-29.796-9.4163-57.58-14.142-28.983-4.9301-39.811-14.452-75.133-3.9893-17.868-2.47-63.581-9.1757-83.792-19.335-13.671-5.1433-27.341-6.3995-41.012-2.1213-11.731 2.6289-22.428 3.7081-30.406 0.70711l-4.0607-36.799z" fill="url(#co)" stroke="url(#ab)"/>
  <path d="m417 704.11c6.0715-13.04 15.244-22.807 33.25-23.25 13.598 4.3037 26.38 10.24 32.75 29-0.94038 13.376-6.2036 30.934-12.75 40.5-2.7081 8.5 0.23071 17 0.5 25.5-5.111 10.25-15.011 19.049-28.25 19-13.239-0.0485-16.809-10.633-23.843-24.164 6.1591-22.374 1.7538-40.429-1.6568-66.586z" fill="url(#cn)" stroke="#000"/>
 </g>
 <path d="m305.04 271.84a2.5 2.5 0 0 1 -5 0 2.5 2.5 0 1 1 5 0z" fill="#fcddbf"/>
 <path d="m382.77 271.15a2.5 2.5 0 0 1 -5 0 2.5 2.5 0 1 1 5 0z" fill="#fcddbf"/>
 <g transform="translate(-65.203 -51.831)" fill-rule="evenodd">
  <path d="m425.25 233.61c-12.07 2.3845-17.943 13.396-32 6.25 1.8519 8.25 4.4328 16 14 24 5.0659 4.2624 20.903 11.288 25.555 7.8617 11.595-4.7835 25.6-15.651 31.581-22.154-10.646 3.7348-31.907 5.2336-37.112 1.1796-0.45497-3.054-1.8535-14.161-2.0235-17.137z" fill="url(#cg)" opacity=".8"/>
  <path transform="translate(65.208 51.826)" d="m293 457.01c9.4962 53.496 19.186 107.19 30 162 0 0 6.625 4.875 7 11s-5.5 13.5-5.5 13.5l3.5 8.5c6.9452 7.0082 13.759 8.4067 22-4.5l-7.5-166c-20.572-1.6523-35.515-12.309-49.5-24.5z" fill="url(#df)"/>
  <path transform="translate(65.208 51.826)" d="m346.5 483.51c18.917 20.166 29.076 43.836 28 72 13.18-9.2316 28.128 2.4894 37 15.5l-2.5-9.5c5.5724-6.4555 5.3069-13.008 4.5-20.5 12.103-29.821 15.19-57.838 14-85-22.619 14.743-44.177 30.835-81 27.5z" fill="url(#dc)"/>
  <path transform="translate(65.208 51.826)" d="m42.5 209.51c6.2392-8.7055 14.643-10.487 41-14 76.132-0.31618 153.31 5.9696 190.5 20.75 10.295 6.1982 2.4018 22.422 3.5 35-31.933-25.716-69.227-13.324-112.75-21.75-39.312-4.5273-77.979-11.033-122.25-20z" fill="url(#cw)"/>
  <path transform="translate(65.208 51.826)" d="m399.16 365.37-1.0392-30.445c1.4212-6.3564 2.7454-13.936 3.182-21.278-42.976 14.606-73.124 12.954-89.47-1.3107-1.6324 19.074-11.781 31.081 0.70711 61.872 27.798 2.1606 55.186 6.2736 86.621-8.8388z" fill="url(#cv)"/>
  <path transform="translate(65.208 51.826)" d="m406.5 246.01c-1.3962-13.723 0.60783-22.912 1-34.25 35.651 9.3472 72.273 15.296 109.25 20 41.05-7.451 85.82 7.4215 128.75 11.25-7.1982 3.9167-4.7858 9.8333-5 15.5-23.185-5.3044-108.88-4.21-119.5-7.25-27.427-3.4703-79.821-10.287-86.5-10.5-9.3333 0.78457-18.667 3.2128-28 5.25z" fill="url(#ce)"/>
 </g>
 <g transform="translate(-65.203 -51.831)">
  <path d="m344.01 168.13-10.607-12.374c-8.5972-1.9257-11.133 3.4552-11.314 9.8995-0.16984 6.0559 3.0474 15.651 6.7175 19.799 2.3464 2.6516 17.678 12.728 17.678 12.728l-2.4749-30.052z" fill="url(#bb)" fill-rule="evenodd" stroke="url(#ac)"/>
  <path d="m461.21 169.38 10.607-12.374c8.5972-1.9257 11.133 3.4552 11.314 9.8995 0.16984 6.0559-3.0474 15.651-6.7175 19.799-2.3464 2.6516-21.567 15.556-21.567 15.556l6.364-32.88z" fill="url(#bj)" fill-rule="evenodd" stroke="url(#dj)"/>
  <path d="m344 168.36c-0.59317 45.907 13.996 50.329 24 57 9.758 6.507 32.818 18 36 18 3.5355 0 30.718-15.598 37-21 9.3698-8.0567 19.229-30.676 20-52 2.2544-3.9605 5.0217-8.1775 11-14 7.3904-54.556-33.304-79.003-63-79-29.696 0.0028-78.204 11.02-75.5 78.5l10.5 12.5z" fill="url(#bk)" fill-rule="evenodd" stroke="url(#bh)" stroke-width=".9"/>
  <path transform="matrix(1.3998 -.02282 .020647 1.2665 -77.497 -162.43)" d="m322 296.86a12.5 7.5 0 1 1 -25 0 12.5 7.5 0 1 1 25 0z" fill="url(#m)"/>
  <path transform="matrix(1.3998 -.02282 .020647 1.2665 -1.7467 -161.68)" d="m322 296.86a12.5 7.5 0 1 1 -25 0 12.5 7.5 0 1 1 25 0z" fill="url(#m)"/>
 </g>
 <g transform="translate(-65.203 -51.831)">
  <path d="m405.17 104.84c10.434 23.924 14.046 42.191 14.142 66.114 11.22-24.749 10.337-44.194 8.4853-68.943 3.4161 20.388 12.925 35.473 7.7782 55.861 8.1693-16.956 10.905-36.084 4.9498-58.69 7.8542 24.929 11.82 49.08 10.253 72.125 7.9172-21.5 5.397-36.13 1.0607-60.458 6.7859 22.51 10.047 37.948 10.253 60.458 7.1913-26.342 10.133-50.922-8.8388-72.478-25.059-28.887-85.957-26.148-107.13 10.253-10.267 15.746-11.156 34.579-1.0607 67.175-2.6492-29.874 2.0883-38.43 4.9498-66.468-0.63876 27.053-3.6268 34.611 6.7175 62.579-6.2965-29.676-0.711-43.253 3.8891-69.296-0.93579 22.863-7.7812 33.705 4.2426 56.569-5.3879-23.235 0.90983-33.837 4.9497-56.215-3.0499 25.674-0.64783 40.472 13.081 68.943-8.9442-30.676-5.0239-46.34-0.35355-72.478-0.32264 22.51 0.27407 35.12 9.8995 57.629-3.1585-24.207-0.96646-35.839 1.4142-57.276 4.6149 21.924 10.134 34.13 10.253 55.154 3.997-18.738 5.513-31.82 1.0606-50.558z" fill="url(#de)" fill-rule="evenodd"/>
 </g>
 <g transform="translate(-66.203 -42.831)">
  <path d="m347.63 169.09s5.978 14.463 11.272 19.131l16.092 0.58893c3.8308-1.8406 9.1606-20.766 9.1606-20.766-10.391-14.7-27.133-16.641-36.525 1.046z" fill="url(#q)" fill-rule="evenodd"/>
  <path transform="matrix(.99878 .049308 -.049308 .99878 61.336 -18.58)" d="m329.5 176.61a13.5 16.25 0 1 1 -27 0 13.5 16.25 0 1 1 27 0z" fill="url(#p)" stroke="#000" stroke-linecap="square" stroke-linejoin="round" stroke-width="1.1"/>
  <path d="m345.57 172.33 2.5743-2.8058c12.611-20.082 31.693-10.05 35.966 0.56651-0.18828-0.59597-0.4055-1.8644 1.0036-0.97252-1.9281-7.254-23.922-27.339-38.816-0.3742l0.61246 1.2747-1.341 2.3113z" fill-rule="evenodd" stroke="#000" stroke-width=".1"/>
  <path d="m358.7 187.21c2.6865-0.18132 12.772 1.2748 14.316-0.22178-0.30148 1.393 2.8854 1.3873 2.8854 1.3873-2.9294 1.4075-13.225 1.9162-16.169 0.69577 0 0-0.65016-1.0646-1.033-1.8612z" fill-rule="evenodd" stroke="#000" stroke-width=".1"/>
 </g>
 <g transform="matrix(-1 0 0 1 738.39 -43.084)">
  <path d="m347.63 169.09s5.978 14.463 11.272 19.131l16.092 0.58893c3.8308-1.8406 9.1606-20.766 9.1606-20.766-10.391-14.7-27.133-16.641-36.525 1.046z" fill="url(#q)" fill-rule="evenodd"/>
  <path transform="matrix(.99878 .049308 -.049308 .99878 61.336 -18.58)" d="m329.5 176.61a13.5 16.25 0 1 1 -27 0 13.5 16.25 0 1 1 27 0z" fill="url(#p)" stroke="#000" stroke-linecap="square" stroke-linejoin="round" stroke-width="1.1"/>
  <path d="m345.57 172.33 2.5743-2.8058c12.611-20.082 31.693-10.05 35.966 0.56651-0.18828-0.59597-0.4055-1.8644 1.0036-0.97252-1.9281-7.254-23.922-27.339-38.816-0.3742l0.61246 1.2747-1.341 2.3113z" fill-rule="evenodd" stroke="#000" stroke-width=".1"/>
  <path d="m358.7 187.21c2.6865-0.18132 12.772 1.2748 14.316-0.22178-0.30148 1.393 2.8854 1.3873 2.8854 1.3873-2.9294 1.4075-13.225 1.9162-16.169 0.69577 0 0-0.65016-1.0646-1.033-1.8612z" fill-rule="evenodd" stroke="#000" stroke-width=".1"/>
 </g>
 <g transform="translate(-65.203 -51.831)">
  <path d="m368.03 166.16c-7.4429-0.36745-13.839 6.6034-14.281 15.562-0.4423 8.9591 5.2446 16.539 12.688 16.906 7.4429 0.36744 13.839-6.6034 14.281-15.562 0.44229-8.9591-5.2446-16.539-12.688-16.906zm-8.7051 19.74c2.3194 2.9821 3.8109 6.346 7.9551 6.5101 4.1344 0.16374 5.4683-3.846 6.86-5.5638 2.1602-2.6662 6.5007-0.52867 3.2738 3.1025-1.4704 1.6546-2.5222 5.8118-9.665 6.555-7.1241 0.74129-9.7667-5.6236-11.281-7.875-1.3818-2.0541 1.1816-4.8834 2.8574-2.7288z" fill="url(#z)"/>
  <path d="m434.42 166.34c7.4429-0.36745 13.839 6.6034 14.281 15.562 0.4423 8.9591-5.2446 16.539-12.688 16.906-7.4429 0.36744-13.839-6.6034-14.281-15.562-0.44229-8.9591 5.2446-16.539 12.688-16.906zm8.7051 19.74c-2.3194 2.9821-3.8109 6.346-7.9551 6.5101-4.1344 0.16374-5.4683-3.846-6.86-5.5638-2.1602-2.6662-6.5007-0.52867-3.2738 3.1025 1.4704 1.6546 2.5222 5.8118 9.665 6.555 7.1241 0.74129 9.7667-5.6236 11.281-7.875 1.3818-2.0541-1.1816-4.8834-2.8574-2.7288z" fill="url(#y)"/>
 </g>
 <path d="m311.15 123.1a4.2426 3.9775 0 1 1 -8.4853 0 4.2426 3.9775 0 1 1 8.4853 0z" fill="url(#x)"/>
 <path d="m379.92 122.22a4.2426 3.9775 0 1 1 -8.4853 0 4.2426 3.9775 0 1 1 8.4853 0z" fill="url(#w)"/>
 <path d="m367.37 138.21a2.6516 2.1213 0 1 1 -5.3033 0 2.6516 2.1213 0 1 1 5.3033 0z" fill="url(#v)"/>
 <path d="m298.25 137.51a2.6516 2.1213 0 1 1 -5.3033 0 2.6516 2.1213 0 1 1 5.3033 0z" fill="url(#u)"/>
 <path d="m304.05 133.49a4.5078 1.1491 39.533 1 1 6.9534 5.7387 4.5078 1.1491 39.533 1 1 -6.9534 -5.7387z" fill="url(#t)"/>
 <path d="m374.06 133.84a4.5078 1.1491 39.533 1 1 6.9534 5.7387 4.5078 1.1491 39.533 1 1 -6.9534 -5.7387z" fill="url(#s)"/>
 <g transform="translate(-65.203 -51.831)" fill="none" stroke="#000">
  <path d="m418 159.61c6.9205-8.8588 25.648-16.369 40.5-1.25"/>
  <path d="m343.38 160.38c6.9205-8.8588 25.648-16.369 40.5-1.25"/>
  <path d="m403.4 202.42c-0.50615 1.4142-0.5392 2.8284-2.8284 4.2426l3.182 3.5355"/>
  <path d="m398.03 220.05c0.95634 0.65211 4.1261 1.4648 6.4694 1.5 1.9606 0.0285 5.0196-1.125 5.4357-1.3125"/>
 </g>
 <g transform="translate(-65.203 -51.831)">
  <path d="m392.09 93.093c-1.9202 21.839 1.4758 41.031 8.8665 62.565-0.71268-8.8915-1.627-16.998-1.724-28.286 1.817 17.009 7.8088 29.356 13.3 43.388 14.418-26.528 11.376-49.746 8.374-73.592l2.8324 27.207c2.8508 11.015 4.0405 22.354 5.2953 33.68 2.8568-5.2479 3.428-12.442 3.6944-19.896 0.80851 5.1049 1.6756 10.145 0.24629 17.739 6.2489-28.393 0.69783-40.511-3.9407-50.34 7.9518 19.052 13.512 36.375 11.576 64.003 21.717-35.345 3.0282-81.874-16.502-92.529 10.531 7.2563 18.6 15.375 24.691 41.83 6.6367 17.075 30.267 51.218-12.376 97.923 7.5807-3.1246 13.677-8.6562 18.472-16.3-4.5463 15.887-7.8921 23.011-11.576 32.601 39.874-44.571 38.734-93.321 24.383-128.97 4.5465 11.837 7.7454 20.548 9.1128 40.032 7.5858 36.479 8.721 70.476 4.6796 105.71 12.717-9.42 13.293-42.593 11.083-68.318 0.63203 10.308 1.0384 20.615 0.85328 30.923 0.22701 9.5488-3e-3 20.432-0.2288 31.303 15.652-32.304 6.9406-53.69 0.36069-78.287 8.9843 22.827 22.174 33.815 35.959 45.066-17.988-24.124-29.96-53.57-43.101-81.982l11.792 25.368c21.463 22.229 34.496 23.813 49.042 24.492-33.823-6.1263-51.541-26.113-55.17-44.347-8.1136-40.768-19.715-69.155-61.327-73.112 15.563 2.1443 29.713 2.6011 47.228 28.526-19.288-27.454-40.666-45.758-76.537-31.402-47.501-18.475-75.216 7.0558-84.725 43.388 22.035-38.254 36.399-38.714 51.229-41.47-39.069 2.8002-59.525 52.705-55.908 72.154 2.7166 14.608 4.3199 63.57-13.546 88.454 8.0818-8.9791 17.373-15.875 19.703-34.758-1.7456-25.576 0.91729-46.998 3.6944-68.798-4.9008 40.929-9.3084 79.336 8.7099 123.18-4.5243-54.244-6.9538-102.9 3.2018-126.34l-3.6129 66.448c4.8244 21.706 12.219 40.284 24.458 52.97-4.1556-14.764-8.1304-29.879-11.822-45.545 2.9707 13.561 6.2855 27.044 16.994 38.833-8.5764-23.175-17.136-46.658-15.763-72.034-4.2251-11.847-3.2924-19.122-3.478-27.14-0.98652 18.952 3.7274 31.461 14.315 47.875-1.5528-13.03-2.522-32.588-2.803-44.174-1.0651-12.253-0.39186-15.64-0.15249-26.781-1.0537 18.538-0.54119 37.076 7.1425 55.613-1.7034-12.168 1.1226-24.554 3.5097-35.837 0.70339-12.044 1.4725-22.551 4.618-32.961-6.0992 24.182-8.3689 49.712 7.1425 81.502l4.4333-63.764c-1.7234 16.141-2.3912 32.281 6.4036 48.422l6.8962-64.243z" fill="url(#bl)" fill-rule="evenodd" stroke="url(#az)" stroke-width=".2"/>
  <path d="m368.5 71.862c-13.166 0.84274-24.235 8.0882-34.875 42.375" fill="none" stroke="#000" stroke-width=".2"/>
  <path d="m447.75 87.362c15.488 22.667 12.08 45.333 13.25 68" fill="none" stroke="#000" stroke-width=".2"/>
  <path d="m340.62 127.61c-2.8854 16.163-2.0529 33.72 0.375 51.875-3.8217-14.204-6.3097-28.588-8.5-43.125" fill="none" stroke="#000" stroke-width=".2"/>
  <path d="m390 109.61c-2.1221 19.932 0.31192 40.418 4.25 59.75" fill="none" stroke="url(#ba)" stroke-width=".4"/>
  <path d="m446 101.11c8.1613 19.873 9.43 40.806 9 62" fill="none" stroke="url(#au)" stroke-linecap="round" stroke-width=".4"/>
  <path d="m339.1 154.61c3.8071 23.482 13.012 43.514 30.146 59" fill="none" stroke="url(#ap)" stroke-width=".4"/>
  <path d="m313.25 114.11c-8.3227 20.674-4.9125 62.084-15.25 82.75" fill="none" stroke="url(#am)" stroke-linecap="round" stroke-width=".5"/>
  <path d="m493.75 166.11c11.458 28.51 21.072 46.425 14.5 72" fill="none" stroke="url(#ad)" stroke-width=".4"/>
 </g>
 <g transform="translate(-65.203 -51.831)" fill-rule="evenodd">
  <path d="m401.25 89.237c3.7383 14.887 8.6184 29.431 9.25 45.25 1.5771-10.303 2.0871-20.739 1-31.375 2.098 8.3007 5.526 16.158 4.875 25.375 2.2879-2.3643 2.5292-8.0033 3.25-12.875 0.0621 19.971 0.50676 40.208-6.875 55-5.6793-14.092-10.459-23.639-13.5-43.375 0.17986 9.3238 0.57761 18.72 1.75 28.375-5.0638-17.717-11.853-34.755-6.375-56.625l2.875 17.25 0.5-25.875c0.68853 3.8128 0.48041 7.3268 3 11.75 0.64397-4.0114 0.93258-8.2004 0.25-12.875z" fill="url(#bz)"/>
  <path d="m390.25 87.612-0.125 10.125 1.875-7.125c-2.5051 21.995-4.8281 44.172-7 66.5 0.74391-23.358-1.869-47.356 5.25-69.5z" fill="url(#cb)"/>
  <path d="m382.5 82.362c-7.6191 30-6.2222 60-8.1326 90-5.1936-26.755-19.195-50.53-3.1174-84.375-1.1146 4.625-1.5304 9.25-2 13.875 2.3598-7.8536 6.1033-13.862 9.375-20.5-1.2066 4.6372-2.3288 9.2864-1.25 14.25 0.47684-5.1556 3.0986-9.0242 5.125-13.25z" fill="url(#cc)"/>
  <path d="m423.88 123.99c2.8295 11.317 4.1575 22.235 5.375 33.875 0.21314-12.25 0.5544-23.888-5.375-33.875z" fill="url(#by)"/>
  <path d="m429.25 105.74c2.915-0.4356 5.1257-1.8574 6.375-4.625 13.147 23.697 8.897 53.644 5.125 68.25 2.311-23.662-3.0414-44.959-11.5-63.625z" fill="url(#bx)"/>
  <path d="m359.5 104.74c-0.86546 8.9316-2.635 17.11-5.5 24.375-0.45554-13.732-0.57717-27.331 2.25-39.75-9.5703 11.513-16.028 27.416-13.5 56-2.5909-16.152-1.6983-32.681 1.875-49.5-5.5457 8.5029-9.8452 21.243-12.062 41.062l4.5 24.188c1.3128-16.132 2.2083-22.25 3.3125-33.375 0.40219 24.343 5.7464 33.235 14.5 47.625-3.7289-24.097-3.8555-47.394-3.125-70.5-0.42953 18.509 0.65409 36.461 7.1692 54.639-1.2246-18.799-3.0183-37.251 0.58081-54.764z" fill="url(#cf)"/>
  <path d="m424.75 76.92c8.125 7.0357 16.25 9.7944 24.375 42.317 4.9775 11.363 11.001 22.243 11.875 35.5 0.4858-60.85-11.621-73.049-36.25-77.817z" fill="url(#bw)"/>
  <path d="m407.75 58.612c1.887 2.4806 3.6734 5.0366 4.25 8.5 20.876-12.48 40.07-4.2804 54.625 8.375-15.599-16.409-33.978-25.371-58.875-16.875z" fill="url(#bn)"/>
  <path d="m398.38 63.612c3.4254 0.96639 5.0843 4.2747 4.25 6.25-0.88773 2.1017-3.9615 1.734-6.75 1.625-8.9583-2.3936-17.917-1.9293-26.875 0-25.901 1.0089-34.56 38.677-40.25 61.375 4.2688-16.874 2.5271-32.381 13.375-50.75-32.598 47.788-10.963 95.152-16.625 142.94-12.383-44.975-6.9149-75.861-3.5-107.94-10.145 63.031 1.8938 72.506-13.802 92.823 17.635-96.21 1.025-99.293 26.927-128.32l-16.625 19.125c8.0708-20.2 26.614-39.196 49.5-40.625-23.196 1.4624-38.465 18.435-50.875 41 9.1221-36.262 34.692-59.179 81.25-37.5z" fill="url(#cl)"/>
  <path d="m425.15 65.771c51.428-2.3907 48.481 48.714 83.085 109.25-7.7782-13.35-15.556-25.791-23.335-42.25 3.0445 8.0571 5.144 15.925 5.8336 23.511-21.86-72.095-43.72-76.745-65.58-90.509z" fill="url(#br)"/>
  <path d="m485.25 152.92c1.5961 6.2461 2.0554 12.492 1.7678 18.738-0.66835-5.7404-3.0258-10.919-4.5962-15.733 2.5761 20.455 7.8588 59.081-0.61872 93.426 11.888-7.3401 17.428-62.296 3.4472-96.432z" fill="url(#bt)"/>
  <path d="m458.38 97.414c7.1864 16.793 8.5027 32.748 9.1924 48.614-1.8924-16.566-3.6649-33.176-10.607-47.906 5.5315 15.047 4.4369 28.565 4.0659 42.25 1.5257 29.092 1.0477 47.684-17.501 92.454 12.773-22.29 24.616-37.905 24.395-81.317 2.8156 7.4951 1.3119 13.91 0.53033 20.506 11.807-38.237-1.0969-62.978-10.076-74.6z" fill="url(#bv)"/>
 </g>
 <g transform="translate(-65.203 -51.831)" fill-rule="evenodd" stroke="#000">
  <path d="m371.23 702.7c0.97744 40.832 16.594 72.023 24.042 107.48 6.7165 22.182-6.0372 35.887-14.849 55.508 7.5725 12.233 27.716 21.912 61.518 2.4749l-10.96-62.579c-0.43327-17.234 1.554-29.142-11.023-44.164 7.9226-16.521 0.28048-43.156-2.4117-60.842-16.762 10.045-34.309 9.2792-46.315 2.1213z" fill="url(#ar)"/>
  <path d="m416.25 621.61c13.999-26.379 50.928-25.42 60.25 0.25 0.55023 21.72-2.3077 43.277-7 61-9.4563-18.869-42.126-14.379-51.5 13.5-1.3301-24.427-2.668-49.185-1.75-74.75z" fill="url(#al)"/>
 </g>
 <g transform="translate(-65.203 -51.831)">
  <path d="m437.94 836.36c-3.634-6.0704 1.147-25.104-23.5-24.5-24.163 0.5799-17.574 20.878-25.5 27.5l49-3z" fill="url(#bd)" fill-rule="evenodd" stroke="#000"/>
  <path d="m445.44 849.86c0.61316-6.0416-3.5756-10.295-11-20-14.863-7.1142-31.036-4.0525-41 0.5-5.4605 7.4616-7.4917 12.834-11.5 19.5h63.5z" fill="url(#bo)" fill-rule="evenodd" stroke="#000"/>
  <path d="m483.91 713.86c3.3997-6.0082 1.9931-20.248-1-25.5-7.0084-9.1779-18.205-17.091-29-18-15.748-1.3265-23.56 1.6197-32 9.5-8.0753 10.212-7.6508 16.283-6.5 27 12.3-12.249 56.031-16.143 68.5 7z" fill="url(#ao)" fill-rule="evenodd" stroke="#000"/>
  <path d="m416.41 744.86 56.5 2c4.3759-14.22 8.9443-22.611 12-33.5-5.6904-19.789-19.489-25.405-34.5-27-18.629-1.9796-28.678 8.0984-35.5 20.5 1.7451 16.211 5.353 24.49 1.5 38z" fill="url(#as)" fill-rule="evenodd" stroke="#000"/>
  <path d="m472.91 746.86v11.5l-57.525-3.182 1.5251-11.172 56 2.8536z" fill="url(#ax)" fill-rule="evenodd" stroke="#000"/>
  <path d="m472.41 758.36c1.9258 19.635-16.296 28.193-26 28-11.938-0.2471-26.759-10.102-30.172-31.182l56.172 3.182z" fill="url(#be)" fill-rule="evenodd" stroke="#000"/>
  <path d="m436.5 706.36 38.5 2.5" fill="url(#ag)" fill-opacity=".75" fill-rule="evenodd" stroke="url(#ak)" stroke-linecap="round"/>
  <path d="m417.25 715.36 61 2.75" fill="none" stroke="url(#aj)"/>
  <path d="m418.5 724.61 56.5 3" fill="url(#af)" fill-opacity=".75" fill-rule="evenodd" stroke="url(#ai)"/>
  <path d="m419.75 734.36 52.25 2.5" fill="url(#ae)" fill-opacity=".75" fill-rule="evenodd" stroke="url(#ah)"/>
  <path d="m421.75 765.86 49.75 2.5" fill="none" stroke="url(#dh)"/>
  <path d="m426.75 775.61 38.25 2" fill="none" stroke="url(#aa)"/>
  <path d="m376.53 869.48 0.82322 9.3787c24.043 12.175 38.362 12.393 70.763 1.9445l0.23744-7.5251c-32.977 10.272-51.739 1.4004-71.823-3.7981z" fill="url(#aw)" fill-rule="evenodd" stroke="#000"/>
  <path d="m445.94 848.86c5.5932 8.3333 5.1948 17.167 3 25.5-28.969 8.5179-58.279 8.0464-71-3-7.7774-7.6667-0.0613-19.333 2.5-22 14.155-18.571 45.66-16.444 65.5-0.5z" fill="url(#ch)" fill-rule="evenodd" stroke="#000"/>
 </g>
 <g transform="translate(-65.203 -51.831)" stroke="#000">
  <path d="m333.75 524.51 5.4801-49.321-13.789 31.643 8.3085 17.678z" fill="url(#ci)" fill-rule="evenodd"/>
  <path d="m433.46 519.91c2.6534 10.941 3.3856 20.181 11.314 32.88l28.638-14.142c-4.69-19.73-20.25-22.47-39.95-18.74z" fill="url(#av)" fill-rule="evenodd"/>
  <path d="m375.83 489.86c5.2667 18.046 1.6865 34.083 12.021 55.508 19.661-8.492 30.316-21.636 44.901-31.82-10.917-24.312-30.063-27.509-56.922-23.688z" fill="url(#bc)" fill-rule="evenodd"/>
  <path d="m351.22 420.72c-0.0723 0.67036-11.157 27.474-13.725 25.146-9-0.43596-12.5 20.171-22.5 38l9-7.5-8.5 7.5-6 3.5c-7.375 32.796-7.9069 54.764 2.5 66-5.0824-20.96-0.21616-25.25 10.5-24 9.7502 1.1373 10.909-1.7311 11.5-4.5 1.3405-6.2762-10.664-14.084-7-19.5 3.6667-1.6941 6.7447-2.2206 11 0.5 8.9114 5.6974 17.517 17.103 27 19 6.875 1.375 8.875-10 16.5-16.5s7.5999-5.8675 14-9.5c5.8403-3.3148 9.0352-3.3932 13.5-1 8.7629 4.0635 7.2507 10.636 8 17 0.12033 8.221-8.8478 10.762-13.5 16-6.4322 1.3932-10.254 7.9505-16.5 11-0.1653 6.6392 9.2462 10.179 15 10 10.554-0.33635 17.707-8.1313 21-13.5 4.0408-6.5876 6.1842-11.45 14-14.5 5.125-2 7.125-2.5 16.5 0.5 10.125 7.25 7.0058 14.562 5 16.5-5.7814 5.5858-14 12-14 12 7.3333 7.6449 14.406 7.0869 22 7.5 6.9256 0.37679 11.66-2.0378 18.5-7 6.375-4.625 6.5788-7.7072 11-9.5 3.3433-1.3557 14.057 1.3625 17 0 3.8875-1.8 0.5-11.5 0.5-11.5 6.6854-1.6901 10.743-6.0861 13.5-13.5 2.8903-7.7714 1-16.5 1-16.5 6.7551 0.25511 8.0491-4.6966 10-9.5 2.7067-6.664 2.5-16.5 2.5-16.5-4.3844-2.9234-9.1599-8.2856-14.5-10.25-10.42-3.833-16.375-6.5625-26-8.75s-20-8-20-8c-1.32-2.5266-11.643-23.76-12.639-26.75-45.996 14.494-86.14 10.276-116.14-1.8964z" fill="url(#ca)" fill-rule="evenodd"/>
  <path d="m353.57 424.06c-9.0442 18.439-26.1 59.349-26.711 81.536" fill="none"/>
  <path d="m370.84 458.98c25.256 21.843 46.791 31.417 71.453 31.941 5.3436 3.1396 7.1812 25.198 16.263 38.891" fill="none"/>
  <path d="m414.93 432.71c0.12753 10.711 6.6924 45.146 9.6924 56.437" fill="none"/>
  <path d="m368.07 426.56c-9.11 38.63 25.57 57.3 44.93 73.55" fill="none"/>
  <path d="m449.78 427.81c-2.3809 6.5478 11.761 35.824 14.081 43.312 13.765 3.2378 17.074 19.345 18.738 37.477 14.897 8.5762 21.719 15.999 30.406 23.688" fill="none"/>
  <path d="m479.77 449.2c5.7193 4.5352 9.1175 11.388 14.849 18.738l-0.35355 9.5459c15.213 7.5997 24.155 16.245 33.941 24.749" fill="none"/>
  <path d="m351.99 413.57-2.5429 9.6464c48.281 13.674 76.753 11.927 119.06 1.0607l-1.8787-10.311c-46.583 14.682-71.392 12.241-114.64-0.39644z" fill="url(#aq)" fill-rule="evenodd"/>
 </g>
 <path d="m293.5 380.5c-1.3589 23.129-6.4454 53.824 7.75 92-13.193-2.0041-19.198-14.617-28.25-19 5.871-24.876 10.776-49.408 20.5-73z" fill="url(#cx)" fill-rule="evenodd" opacity=".5"/>
 <g transform="translate(-65.203 -51.831)" stroke="#000">
  <path d="m325.5 307.86c18.238 32.5 19.54 78.5 14 118 0 0 2.3122 6.4031 12.5 3.75 9.8819-2.5734 20.644-4.3644 30.5-9.5 5.7944-3.0194 12.032-4.4978 13.75-11.5 0.90389-3.6844-0.0337-7.7172 2.75-11.5 6.1672-8.3807 14.123-8.8557 21.5-10.25 7.3769-1.3943 14.686-1.2374 23.25 3.25 4e-3 5.6921 2.8655 9.4786-8.5 22.75 4.8927 3.0474 6.9295 1.8109 9.25 1 4.1667-6.8633 8.3333-9.5029 12.5-12.5 9.1575-5.7326 17.944-5.9024 26.25-3.75 4.1794 1.083 5.27 8.0401 12.75 6.75 4.0289-4.2216 7.9793-7.2532 4.5-17-1.7882-5.0095-2.8718-11.101-7.5-16.25-3.7173-4.1353-8.733-6.3035-13-14.5-4.6252-8.8847-7.3772-18.833-4.5-28.25 0 0 11-5.3125 18.5-8s14-1.75 14-1.75c12.784-1.4144 13.328 0.20135 24 1.75 5.5002 0.79815 22-4 22-4 14.466-17.652 11.569-32.525 4.75-55.5-7.6966-1.6517-16.432-6.5342-29-5.75-4.5368 7.8921-4.167 14.389-12.5 19.75 5.6376-3.0291 8.5363-8.297 10.25-15.25-10.667-1.1961-16.333-5.5382-23-11l-5.25 0.25c-19.613-5.5731-37.093-1.9395-58 0.25-3.2147 7.5605-1.7734 12.573-7.0833 21.488-9.8098-10.085-18.132-8.8109-24.29-7.8736-7.2804 1.108-15.897 0.37937-25.041 6.1315-5.15-6.75-8.26-12.6-9.84-21.5l-38-8c-6.6276-0.8361-13.153-0.54096-23-1.25-8.9381 1.5309-15.151 4.4247-21.5 7.25l-5-7.25c-4.0935 0.18898-8.865-3.6899-11.75 3.75l-7.75-4.75-23-1.75c11.436 24.776 17.943 49.387 9.5 73.5 20.999 9.5081 44.543-12.299 71-1z" fill="url(#db)" fill-rule="evenodd"/>
  <path d="m320.25 298.86c16.904 28.664 34.327 58.48 65.5 80.5" fill="none"/>
  <path d="m344.75 300.36c9.7995 16.794 23.307 32.197 43.75 45" fill="none"/>
  <path d="m275.5 241.11c2.4427 17.149 14.473 33.797 26 49-5.5639-7.6552-6.0124-9.5908-6.5468-9.5734 0.46083-7.5938 4.1867-28.455-2.2032-35.177" fill="none"/>
  <path d="m314.5 237.86c4.2432 17.676 0.89825 36.873 17 55l-3.75-19.5c1.9533 13.065 6.2374 24.965 5.75 39.25 1.5736 4.3886-0.66305 5.9194-1.5 8.5" fill="none"/>
  <path d="m505.25 248.36c-22.741 23.086-24.938 52.041-29.75 80.25" fill="none"/>
  <path d="m443.5 390.11c-30.788-29.42-47.276-37.411-52-74.25" fill="none"/>
  <path d="m512.75 276.36c-18.938 4.5937-26.684 7.886-30.75 16.5" fill="none"/>
 </g>
 <path d="m280.73 300.31c1.0853 26.037 3.5111 51.627 7.4246 76.721 14.125-3.169 25.36-7.2935 35.002-12.021-17.232-21.822-33.598-40.876-42.426-64.7z" fill="url(#cd)" fill-rule="evenodd" opacity=".4"/>
 <path d="m326.5 264c9.2076 30.434 35.567 58.477 65.75 84.5-6.3011 4.7601-11.484 8.8131-13.296 13.396-4.9404-0.0512-5.7346 0.17882-8.7045-0.89645 7.0218-6.2427 9.9781-13.841 9-22.75-39.311-34.309-47.874-44.104-52.75-74.25z" fill="url(#bm)" fill-rule="evenodd" opacity=".8"/>
 <g transform="translate(-65.203 -51.831)" stroke="#000">
  <path d="m398 334.61c22.796 82.526 91.705 4.0805 94.5-4.25-9.1799 7.6853-63.937 23.976-76 1.25l-18.5 3z" fill="url(#bg)" fill-rule="evenodd"/>
  <path d="m400 338.86c5.384 49.427 59.668 9.2975 98 27.5-31.015-38.952-73.293-12.841-88-36.5l-10 9z" fill="url(#ay)" fill-rule="evenodd"/>
  <path d="m404.81 332.39c5.5982 11.735 6.7069 18.053 23.129 20.732" fill="none"/>
  <path d="m372.27 240.02c-10.871 3.1768-30.249-6.1106-52.768-2.5355-1.2238 56.224 58.283 59.596 80.5 81.379l9 2c-12.235-26.957-21.775-56.608-36.732-80.843z" fill="url(#ck)" fill-rule="evenodd"/>
  <path d="m507 247.36c-20.413-7.6784-44.535-5.0102-68.268-5.6716-5.935 31.386-18.36 51.131-27.854 76.586l6.1464 2.2071c30.87-19.56 65.46-38.28 89.97-73.12z" fill="url(#bs)" fill-rule="evenodd"/>
  <path d="m421.96 318.74c-12.346-6.5525-14.496-2.3709-24.222 1.5607-1.6109 4.5556-3.9934 10.146 1.0251 17.354 12.315 2.5294 16.092-0.14087 23.757-3.2929 2.783-4.5 0.55557-11.121-0.56066-15.621z" fill="url(#at)" fill-rule="evenodd"/>
 </g>
</svg>
